<svg width="400" height="400" viewBox="0 0 400 400" xmlns="http://www.w3.org/2000/svg">
  <!-- Background Circle (optional) -->
  <circle cx="200" cy="200" r="180" fill="#F1F5F9" opacity="0.5"/>
  
  <!-- Teeth Outline -->
  <path d="M100 200 C100 150, 140 140, 160 140 C180 140, 190 160, 200 160 C210 160, 220 140, 240 140 C260 140, 300 150, 300 200 C300 260, 260 300, 200 300 C140 300, 100 260, 100 200 Z" fill="#FFFFFF" stroke="#E2E8F0" stroke-width="2"/>
  <path d="M160 140 V200 M240 140 V200 M200 160 V220" stroke="#E2E8F0" stroke-width="2"/>

  <!-- Brackets -->
  <rect x="130" y="180" width="20" height="20" rx="4" fill="#94A3B8" stroke="#64748B" stroke-width="2"/>
  <rect x="190" y="190" width="20" height="20" rx="4" fill="#94A3B8" stroke="#64748B" stroke-width="2"/>
  <rect x="250" y="180" width="20" height="20" rx="4" fill="#94A3B8" stroke="#64748B" stroke-width="2"/>

  <!-- Wire -->
  <path d="M100 190 Q200 230 300 190" fill="none" stroke="#64748B" stroke-width="4" stroke-linecap="round"/>

  <!-- Label -->
  <text x="50%" y="360" text-anchor="middle" font-family="Arial, sans-serif" font-size="24" fill="#64748B">Dental Wire / Prosthesis</text>
</svg>
